<?xml version="1.0" standalone="no"?>
<!DOCTYPE svg PUBLIC "-//W3C//DTD SVG 20010904//EN"
 "http://www.w3.org/TR/2001/REC-SVG-20010904/DTD/svg10.dtd">
<svg version="1.0" xmlns="http://www.w3.org/2000/svg"
 width="520.000000pt" height="520.000000pt" viewBox="0 0 520.000000 520.000000"
 preserveAspectRatio="xMidYMid meet">
<metadata>
Created by potrace 1.11, written by Peter Selinger 2001-2013
</metadata>
<g transform="translate(0.000000,520.000000) scale(0.100000,-0.100000)"
fill="#000000" stroke="none">
<path d="M1275 3900 c-3 -5 -1 -10 4 -10 6 0 11 5 11 10 0 6 -2 10 -4 10 -3 0
-8 -4 -11 -10z"/>
<path d="M597 3863 c-8 -17 -1 -48 11 -45 6 1 12 -3 12 -9 0 -7 -9 -9 -22 -6
-12 3 -29 2 -39 -4 -12 -6 -20 -5 -24 1 -5 8 -11 8 -20 0 -7 -6 -21 -7 -30 -3
-13 4 -16 3 -11 -5 5 -8 1 -10 -10 -5 -13 5 -15 3 -9 -8 4 -8 5 -11 0 -7 -4 4
-14 3 -21 -3 -8 -7 -14 -6 -20 2 -5 8 -3 9 6 4 9 -6 11 -4 5 5 -6 9 -4 11 5 5
9 -6 11 -4 5 5 -5 9 -4 11 4 6 6 -4 14 -1 17 8 3 9 14 13 29 10 29 -5 54 21
36 39 -10 9 -11 8 -6 -5 7 -18 5 -19 -35 -22 -12 0 -24 -6 -28 -11 -4 -6 -23
-10 -42 -10 -26 0 -34 -4 -32 -16 1 -9 -5 -16 -13 -16 -14 0 -19 10 -16 30 1
5 -3 6 -9 2 -7 -4 -7 -12 0 -26 6 -11 8 -25 5 -32 -4 -6 -1 -5 7 4 7 9 21 15
30 13 15 -2 16 1 8 17 -9 16 -7 19 12 19 16 0 19 -3 11 -11 -6 -6 -9 -17 -7
-23 2 -6 -5 -17 -17 -24 -15 -9 -19 -10 -14 -1 5 7 3 10 -6 7 -8 -3 -13 -11
-11 -17 2 -9 -3 -9 -17 -1 -12 6 -18 16 -15 25 4 8 2 15 -4 15 -5 0 -9 -10 -8
-22 0 -11 -5 -23 -12 -25 -6 -3 -10 1 -9 9 2 7 2 9 -1 5 -2 -4 -10 -3 -17 3
-10 8 -15 8 -21 -1 -4 -7 -3 -9 3 -6 6 4 16 0 23 -8 7 -8 8 -15 2 -15 -5 0 -9
-11 -9 -25 0 -14 4 -25 9 -25 5 0 6 5 3 10 -3 6 1 13 10 16 14 6 14 9 3 16
-10 7 -8 8 5 4 12 -4 16 -2 11 6 -5 7 -3 8 6 3 9 -6 11 -4 5 5 -5 9 -4 11 3 6
17 -10 16 -12 -22 -51 -21 -21 -40 -33 -49 -29 -8 3 -18 0 -22 -6 -5 -8 -11
-7 -23 2 -10 8 -13 8 -9 1 4 -6 4 -13 0 -16 -5 -2 -2 -2 5 0 9 2 11 -3 7 -16
-3 -11 0 -23 6 -27 7 -4 9 -3 6 4 -11 17 2 38 23 39 11 1 18 -2 15 -8 -4 -5
-13 -9 -21 -9 -17 0 -19 -16 -1 -23 9 -4 9 -6 -1 -6 -8 -1 -10 -6 -5 -13 4 -7
-5 -5 -20 5 -32 21 -50 23 -20 2 20 -14 30 -60 11 -49 -4 3 -16 0 -25 -6 -17
-11 -17 -11 0 -6 29 9 34 -24 6 -46 -16 -13 -18 -18 -6 -14 19 6 24 -10 5 -17
-10 -4 -10 -6 0 -6 6 -1 12 -6 12 -12 0 -6 -6 -9 -13 -6 -8 3 -13 -3 -14 -17
0 -11 1 -15 4 -8 12 32 18 4 18 -91 1 -60 -3 -105 -10 -109 -7 -5 -7 -8 1 -8
6 0 11 -14 12 -32 1 -22 -2 -28 -8 -18 -5 8 -20 15 -34 16 -14 0 -23 -3 -21
-7 3 -4 13 -6 23 -5 9 2 22 -4 29 -13 16 -21 16 -61 1 -61 -9 0 -8 -4 2 -10
13 -9 13 -11 0 -20 -8 -5 -10 -10 -4 -10 14 0 13 -262 -1 -272 -7 -5 -6 -8 1
-8 16 0 17 -80 1 -80 -8 0 -7 -4 3 -10 13 -9 13 -11 0 -20 -8 -5 -10 -10 -4
-10 16 0 17 -80 1 -80 -8 0 -7 -4 3 -10 13 -9 13 -11 0 -20 -8 -5 -10 -10 -4
-10 14 0 13 -262 -1 -272 -7 -5 -6 -8 1 -8 6 0 11 -14 12 -32 1 -22 -2 -28 -8
-18 -5 8 -20 15 -34 16 -14 0 -23 -3 -21 -7 3 -4 13 -6 23 -5 9 2 22 -4 29
-13 16 -21 16 -61 1 -61 -9 0 -8 -4 2 -10 13 -9 13 -11 0 -20 -8 -5 -10 -10
-4 -10 14 0 14 -240 -1 -240 -5 0 -3 -5 5 -10 13 -9 13 -11 0 -20 -9 -6 -10
-10 -3 -10 8 0 11 -19 10 -61 -1 -33 1 -65 5 -72 4 -6 2 -15 -5 -19 -9 -6 -9
-8 1 -8 6 0 12 -8 12 -18 0 -10 3 -22 7 -26 5 -4 8 -11 8 -14 2 -26 48 -96 97
-145 51 -51 139 -105 161 -99 5 1 5 -3 1 -9 -4 -7 0 -9 14 -5 11 4 23 2 27 -4
3 -5 11 -10 16 -10 6 0 7 5 4 10 -9 15 1 12 14 -4 9 -11 9 -16 0 -22 -8 -5 -9
-3 -4 6 5 9 4 11 -3 6 -9 -5 -9 -13 -1 -27 7 -15 14 -17 23 -10 9 7 19 6 37
-6 21 -15 22 -15 11 -1 -9 11 -10 18 -2 23 5 3 10 1 10 -5 0 -6 5 -8 10 -5 6
3 13 -1 16 -9 5 -13 9 -12 23 6 12 15 20 18 25 10 4 -7 2 -12 -3 -12 -6 0 -11
-5 -11 -10 0 -6 6 -9 13 -8 6 2 11 -4 9 -12 -2 -8 0 -11 5 -7 4 5 8 12 9 15 3
21 17 41 26 36 6 -4 5 4 -2 16 -7 12 -8 20 -2 16 5 -3 15 -20 23 -37 11 -28
14 -30 20 -13 6 17 8 16 18 -8 6 -16 13 -28 16 -28 2 0 0 11 -5 25 -6 15 -6
26 0 30 6 4 11 1 11 -4 1 -6 2 -16 3 -23 0 -6 8 -13 16 -15 10 -3 11 -2 3 4
-8 6 -8 13 2 26 13 18 14 18 33 -1 17 -17 20 -17 29 -3 5 9 9 23 8 31 -4 22
35 23 53 2 13 -16 13 -15 8 3 -5 18 -4 18 10 -3 20 -26 39 -30 25 -4 -7 14 -6
18 9 19 10 1 25 -6 32 -15 11 -13 11 -14 -1 -7 -10 6 -12 4 -6 -5 5 -9 4 -11
-4 -6 -6 4 -9 12 -6 17 4 5 1 9 -4 9 -14 0 -14 -13 1 -28 9 -9 8 -12 -5 -12
-9 0 -17 -5 -17 -11 0 -11 15 -5 42 19 16 13 19 12 28 -9 10 -23 10 -23 6 -1
-3 15 1 22 11 22 8 0 12 -4 8 -9 -3 -6 4 -8 16 -6 16 3 20 0 15 -13 -5 -15 -4
-14 8 1 8 11 13 26 11 36 -4 21 40 28 48 7 7 -18 -8 -42 -17 -27 -4 6 -2 11 4
11 6 0 8 5 5 10 -11 17 -24 11 -20 -10 2 -11 0 -20 -6 -20 -5 0 -9 -5 -9 -11
0 -8 4 -9 13 0 8 6 17 8 20 4 4 -3 9 2 13 11 3 9 11 13 16 10 6 -4 5 3 -1 15
-7 11 -9 21 -6 21 3 0 15 -19 25 -43 15 -32 20 -37 20 -19 0 13 4 21 9 17 5
-3 12 -1 15 4 3 4 -4 8 -16 7 -28 -1 -33 29 -4 32 15 1 17 -1 7 -7 -8 -5 -9
-11 -3 -15 5 -3 15 0 21 8 14 17 87 14 83 -3 -1 -7 3 -11 10 -8 7 2 12 9 11
14 -3 16 40 12 55 -5 13 -16 13 -15 8 3 -5 18 -4 18 10 -3 20 -26 39 -30 25
-4 -7 14 -6 18 9 19 10 1 25 -6 32 -15 11 -13 11 -14 -1 -7 -10 6 -12 4 -6 -5
5 -9 4 -11 -4 -6 -6 4 -9 12 -6 17 4 5 1 9 -4 9 -14 0 -14 -13 1 -28 9 -9 8
-12 -5 -12 -9 0 -17 -5 -17 -11 0 -11 15 -5 42 19 16 13 19 12 28 -9 10 -23
10 -23 6 -1 -3 15 1 22 11 22 8 0 12 -4 8 -9 -3 -6 4 -8 16 -6 16 3 20 0 15
-13 -5 -15 -4 -14 8 1 8 11 13 26 11 36 -4 21 40 28 48 7 7 -18 -8 -42 -17
-27 -4 6 -2 11 4 11 6 0 8 5 5 10 -11 17 -24 11 -20 -10 2 -11 0 -20 -6 -20
-5 0 -9 -5 -9 -11 0 -8 4 -9 13 0 8 6 17 8 20 4 4 -3 9 2 13 11 3 9 11 13 16
10 6 -4 5 3 -1 15 -7 11 -9 21 -6 21 3 0 14 -19 25 -42 16 -37 19 -39 22 -17
l4 24 12 -27 c14 -35 25 -37 12 -3 -6 15 -6 26 0 30 6 4 11 1 11 -4 1 -6 2
-16 3 -23 0 -6 8 -13 16 -15 10 -3 11 -2 3 4 -8 6 -8 13 2 26 13 18 14 18 33
-1 17 -17 20 -17 29 -3 5 9 9 23 8 31 -4 22 35 23 53 2 13 -16 13 -15 8 3 -5
18 -4 18 10 -3 20 -26 39 -30 25 -4 -7 14 -6 18 9 19 10 1 25 -6 32 -15 11
-13 11 -14 -1 -7 -10 6 -12 4 -6 -5 5 -9 4 -11 -4 -6 -6 4 -9 12 -6 17 4 5 1
9 -4 9 -14 0 -14 -13 1 -28 9 -9 8 -12 -5 -12 -9 0 -17 -5 -17 -11 0 -11 15
-5 42 19 16 13 19 12 28 -9 10 -23 10 -23 6 -1 -3 15 1 22 11 22 8 0 12 -4 8
-9 -3 -6 4 -8 16 -6 16 3 20 0 15 -13 -5 -15 -4 -14 8 1 8 11 13 26 11 36 -4
21 40 28 48 7 7 -18 -8 -42 -17 -27 -4 6 -2 11 4 11 6 0 8 5 5 10 -11 17 -24
11 -20 -10 2 -11 0 -20 -6 -20 -5 0 -9 -5 -9 -11 0 -8 4 -9 13 0 8 6 17 8 20
4 4 -3 9 2 13 11 3 9 11 13 16 10 6 -4 5 3 -1 15 -7 11 -9 21 -6 21 3 0 15
-19 25 -42 15 -33 20 -38 20 -20 0 13 4 21 9 17 5 -3 12 -1 15 4 3 4 -4 8 -16
7 -28 -1 -33 29 -4 32 15 1 17 -1 7 -7 -8 -5 -9 -11 -3 -15 5 -3 15 0 21 8 14
17 87 14 83 -3 -1 -7 3 -11 10 -8 7 2 12 9 11 14 -3 16 40 12 55 -5 13 -16 13
-15 8 3 -5 18 -4 18 10 -3 20 -26 39 -30 25 -4 -7 14 -6 18 9 19 10 1 25 -6
32 -15 11 -13 11 -14 -1 -7 -10 6 -12 4 -6 -5 5 -9 4 -11 -4 -6 -6 4 -9 12 -6
17 4 5 1 9 -4 9 -14 0 -14 -13 1 -28 9 -9 8 -12 -5 -12 -9 0 -17 -5 -17 -11 0
-11 15 -5 42 19 16 13 19 12 28 -9 10 -23 10 -23 6 -2 -4 22 8 29 38 24 5 -1
6 4 3 12 -3 7 1 14 8 14 7 0 11 -7 8 -16 -3 -11 0 -10 11 3 13 16 19 17 28 8
7 -7 8 -12 3 -12 -6 0 -3 -5 5 -11 12 -9 11 -10 -5 -5 -18 5 -18 4 -4 -6 9 -7
18 -20 22 -28 3 -8 4 3 3 26 -3 38 -2 40 24 40 16 0 26 -4 24 -11 -3 -6 5 -11
16 -11 11 0 19 5 16 11 -2 7 2 12 9 12 7 0 11 -7 8 -16 -3 -12 0 -11 11 3 15
19 16 19 38 0 16 -14 20 -15 16 -4 -4 11 1 16 16 17 11 0 15 -1 9 -4 -7 -3
-13 -9 -13 -14 0 -6 5 -7 12 -3 7 4 8 3 4 -4 -5 -8 -2 -10 8 -6 9 3 14 10 11
14 -3 5 0 12 6 16 7 4 9 3 6 -3 -4 -6 0 -14 9 -17 11 -4 15 -2 11 7 -3 8 1 14
8 14 7 0 11 -7 8 -16 -3 -11 0 -10 11 3 13 16 19 17 28 8 7 -7 8 -12 3 -12 -6
0 -3 -5 5 -11 12 -9 11 -10 -5 -5 -18 5 -18 4 -4 -6 9 -7 18 -20 22 -28 3 -8
4 3 3 26 -3 38 -2 40 24 40 16 0 26 -4 24 -11 -3 -6 5 -11 16 -11 11 0 19 5
16 11 -2 7 2 12 9 12 7 0 11 -7 8 -16 -3 -12 0 -11 11 3 15 19 16 19 38 0 16
-14 20 -15 16 -4 -4 11 1 16 16 17 11 0 15 -1 9 -4 -7 -3 -13 -9 -13 -14 0 -6
5 -7 12 -3 7 4 8 3 4 -4 -5 -8 -2 -10 8 -6 9 3 14 10 11 14 -3 5 0 12 6 16 7
4 9 3 6 -3 -4 -6 0 -14 9 -17 11 -4 15 -2 11 7 -3 8 1 14 8 14 7 0 11 -7 8
-16 -3 -11 0 -10 11 3 13 16 19 17 28 8 7 -7 8 -12 3 -12 -6 0 -3 -5 5 -11 12
-9 11 -10 -5 -5 -18 5 -18 4 -4 -6 9 -7 18 -20 22 -28 3 -8 4 3 3 26 -3 38 -2
40 24 40 16 0 26 -4 24 -11 -3 -6 5 -11 16 -11 11 0 19 5 16 11 -2 7 2 12 9
12 7 0 11 -7 8 -16 -3 -12 0 -11 11 3 15 19 16 19 38 0 16 -14 20 -15 16 -4
-4 11 1 16 16 17 11 0 15 -1 9 -4 -7 -3 -13 -9 -13 -14 0 -6 5 -7 12 -3 7 4 8
3 4 -4 -5 -8 -2 -10 8 -6 9 3 14 10 11 14 -3 5 0 12 6 16 7 4 9 3 6 -3 -4 -6
0 -14 9 -17 11 -4 15 -2 11 7 -3 8 1 14 8 14 7 0 11 -7 8 -16 -3 -11 0 -10 11
3 13 16 19 17 28 8 7 -7 8 -12 3 -12 -6 0 -3 -5 5 -11 12 -9 11 -10 -5 -5 -18
5 -18 4 -4 -6 9 -7 18 -20 22 -28 3 -8 4 3 3 26 -3 38 -2 40 24 40 16 0 26 -4
24 -11 -3 -6 5 -11 16 -11 11 0 19 5 16 11 -2 7 2 12 9 12 7 0 11 -7 8 -16 -3
-12 0 -11 11 3 15 19 16 19 38 0 16 -14 20 -15 16 -4 -4 11 1 16 16 17 11 0
15 -1 9 -4 -7 -3 -13 -9 -13 -14 0 -6 5 -7 12 -3 7 4 8 3 4 -4 -5 -8 -2 -10 9
-6 9 4 15 3 14 -2 -5 -29 2 -37 15 -19 14 20 12 40 -4 30 -5 -3 -11 -1 -14 4
-12 19 16 23 30 5 15 -18 15 -18 10 1 -5 18 -4 18 10 -3 20 -26 39 -30 25 -4
-7 14 -6 18 9 19 10 1 25 -6 32 -15 11 -13 11 -14 -1 -7 -10 6 -12 4 -6 -5 5
-9 4 -11 -4 -6 -6 4 -9 12 -6 17 4 5 1 9 -4 9 -14 0 -14 -13 1 -28 9 -9 8 -12
-5 -12 -9 0 -17 -5 -17 -11 0 -11 15 -5 42 19 16 13 19 12 28 -9 10 -23 10
-23 6 -1 -3 15 1 22 11 22 8 0 12 -4 8 -9 -3 -6 4 -8 16 -6 16 3 20 0 15 -13
-5 -15 -4 -14 8 1 8 11 13 26 11 36 -4 21 40 28 48 7 7 -18 -8 -42 -17 -27 -4
6 -2 11 4 11 6 0 8 4 5 10 -11 17 -24 11 -20 -10 2 -11 0 -20 -6 -20 -5 0 -9
-5 -9 -11 0 -8 4 -9 13 0 8 6 17 8 20 4 4 -3 9 2 13 11 3 9 11 13 16 10 6 -4
5 3 -1 15 -7 11 -9 21 -6 21 3 0 15 -19 25 -42 15 -33 20 -38 20 -20 0 13 4
21 9 17 5 -3 12 -1 15 4 3 4 -4 8 -16 7 -28 -1 -33 29 -4 32 15 1 17 -1 7 -7
-8 -5 -9 -11 -3 -15 5 -3 15 0 21 8 14 17 87 14 83 -3 -1 -7 3 -11 10 -8 7 2
12 9 11 14 -3 16 40 12 55 -5 13 -16 13 -15 8 3 -5 18 -4 18 10 -3 20 -26 39
-30 25 -4 -7 14 -6 18 9 19 10 1 25 -6 32 -15 11 -13 11 -14 -1 -7 -10 6 -12
4 -6 -5 5 -9 4 -11 -4 -6 -6 4 -9 12 -6 17 4 5 1 9 -4 9 -14 0 -14 -13 1 -28
9 -9 8 -12 -5 -12 -9 0 -17 -5 -17 -11 0 -11 15 -5 42 19 16 13 19 12 28 -9
10 -23 10 -23 6 -1 -3 15 1 22 11 22 8 0 11 -5 7 -12 -4 -7 -3 -8 5 -4 6 4 14
0 17 -9 6 -14 8 -14 19 2 7 10 12 25 10 33 -4 19 36 25 46 8 11 -17 -9 -48
-26 -42 -17 7 -21 -21 -5 -31 6 -4 7 1 3 12 -6 16 -5 16 10 4 10 -8 20 -11 24
-7 3 3 1 6 -5 6 -9 0 -9 5 0 19 7 11 16 17 21 14 5 -3 4 5 -3 17 -7 12 -8 20
-2 16 5 -3 15 -20 22 -37 13 -31 14 -31 22 -9 7 18 11 20 23 10 8 -7 12 -17 8
-23 -4 -6 7 -2 23 10 16 11 40 19 54 17 14 -1 19 0 12 3 -10 4 -10 8 -1 19 15
19 30 18 23 -1 -4 -8 -1 -15 6 -15 6 0 8 5 5 10 -3 6 -2 10 4 10 6 0 8 7 5 15
-4 8 -9 13 -13 10 -4 -2 -8 2 -8 10 0 8 4 12 8 10 3 -3 12 2 19 10 7 8 18 15
24 15 6 0 4 -5 -4 -10 -14 -9 -13 -11 9 -14 5 0 13 -4 17 -8 3 -4 -3 -6 -14
-3 -28 5 -38 -11 -12 -18 11 -3 23 -1 26 4 3 5 10 6 16 3 5 -4 2 6 -8 22 -14
20 -15 29 -6 32 7 2 9 9 5 15 -5 8 -2 8 8 0 13 -10 19 -7 38 17 14 20 17 30 9
30 -7 0 -2 8 12 18 14 9 26 24 28 32 7 30 20 31 19 2 -1 -17 -6 -28 -11 -25
-5 4 -6 1 -2 -5 5 -8 1 -10 -11 -5 -10 3 -15 3 -12 -1 4 -4 19 -9 35 -12 22
-3 25 -2 14 6 -15 9 -13 11 12 14 15 1 19 34 6 43 -6 3 -8 1 -4 -5 3 -6 2 -14
-4 -17 -7 -4 -9 6 -7 29 2 19 0 37 -4 38 -5 2 -4 10 1 18 8 13 10 12 10 -2 0
-10 6 -18 13 -18 8 0 7 -3 -3 -10 -8 -5 -11 -13 -6 -17 5 -4 11 -3 13 4 2 7
10 10 18 7 7 -3 16 0 20 5 3 6 12 8 18 5 7 -4 8 -3 4 1 -10 12 -38 15 -31 4 6
-10 -9 -13 -19 -3 -11 12 5 33 21 27 14 -4 14 -3 3 5 -12 9 -12 13 -2 26 11
13 11 19 1 31 -10 12 -9 16 4 21 9 3 16 11 16 16 0 6 -7 4 -16 -3 -15 -12 -16
-11 -10 11 6 20 5 22 -4 10 -10 -13 -11 -12 -6 3 3 10 6 21 6 23 0 3 4 3 8 0
4 -2 14 0 22 6 12 8 12 9 -2 4 -10 -3 -20 -1 -23 4 -4 6 0 10 8 10 21 0 29 28
16 52 -10 18 -9 20 5 15 11 -4 15 -3 11 4 -4 5 -16 7 -28 3 -19 -6 -20 -5 -8
9 7 9 17 14 22 11 5 -3 6 3 2 12 -4 11 -8 13 -11 6 -2 -7 -9 -12 -14 -12 -6 0
-8 3 -5 6 3 4 2 15 -4 26 -9 16 -7 20 10 25 26 7 34 29 20 55 -10 18 -9 20 5
15 11 -4 15 -3 11 4 -4 5 -16 7 -28 3 -19 -6 -20 -5 -8 9 7 9 17 14 22 11 5
-3 6 3 2 12 -4 11 -8 13 -11 6 -2 -7 -9 -12 -14 -12 -6 0 -8 3 -5 6 3 4 2 15
-4 26 -9 16 -7 20 10 25 26 7 34 29 20 55 -10 18 -9 20 5 15 11 -4 15 -3 11 4
-4 5 -16 7 -28 3 -19 -6 -20 -5 -8 9 7 9 17 14 22 11 5 -3 6 3 2 12 -4 11 -8
13 -11 6 -2 -7 -9 -12 -14 -12 -6 0 -8 3 -5 6 3 4 2 15 -4 26 -9 16 -7 20 10
25 26 7 34 29 20 55 -10 18 -9 20 5 15 11 -4 15 -3 11 4 -4 5 -16 7 -28 3 -19
-6 -20 -5 -8 9 7 9 17 14 22 11 5 -3 6 3 2 12 -4 11 -8 13 -11 6 -2 -7 -9 -12
-14 -12 -6 0 -8 3 -5 6 3 4 2 15 -4 26 -9 16 -7 20 10 25 26 7 34 29 20 55
-10 18 -9 20 5 15 11 -4 15 -3 11 4 -4 5 -16 7 -28 3 -19 -6 -20 -5 -8 9 7 9
17 14 22 11 5 -3 6 3 2 12 -4 11 -8 13 -11 6 -2 -7 -9 -12 -14 -12 -6 0 -8 3
-5 6 3 4 2 15 -4 26 -9 16 -7 20 10 25 26 7 34 29 20 55 -10 18 -9 20 5 15 11
-4 15 -3 11 4 -4 5 -16 7 -28 3 -19 -6 -20 -5 -8 9 7 9 17 14 22 11 5 -3 6 3
2 12 -4 11 -8 13 -11 6 -2 -7 -9 -12 -14 -12 -6 0 -8 3 -5 6 3 4 2 15 -4 26
-9 16 -7 20 10 25 26 7 34 29 20 55 -10 18 -9 20 5 15 11 -4 15 -3 11 4 -4 5
-16 7 -28 3 -19 -6 -20 -5 -8 9 7 9 17 14 22 11 5 -3 6 3 2 12 -4 11 -8 13
-11 6 -2 -7 -9 -12 -14 -12 -6 0 -8 3 -5 6 3 4 2 15 -4 26 -9 16 -7 20 10 25
26 7 34 29 20 55 -10 18 -9 20 5 15 11 -4 15 -3 11 4 -4 5 -16 7 -28 3 -19 -6
-20 -5 -8 9 7 9 17 14 22 11 5 -3 6 3 2 12 -4 11 -8 13 -11 6 -2 -7 -9 -12
-14 -12 -6 0 -8 3 -5 6 3 4 2 15 -4 26 -9 16 -7 20 10 25 26 7 34 29 20 55
-10 18 -9 20 5 15 11 -4 15 -3 11 4 -4 5 -16 7 -28 3 -19 -6 -20 -5 -8 9 7 9
17 14 22 11 5 -3 6 3 2 12 -4 11 -8 13 -11 6 -2 -7 -9 -12 -14 -12 -6 0 -8 3
-5 6 3 4 2 15 -4 26 -9 16 -7 20 10 25 26 7 34 29 20 55 -10 18 -9 20 5 15 11
-4 15 -3 11 4 -4 5 -16 7 -28 3 -19 -6 -20 -5 -8 9 7 9 17 15 20 12 4 -2 8 2
8 10 0 8 -4 12 -9 9 -5 -4 -9 0 -7 7 3 26 -1 39 -12 39 -5 0 -7 -5 -3 -12 4
-6 3 -8 -3 -5 -5 4 -9 -12 -8 -38 1 -24 -3 -46 -9 -48 -7 -3 -11 15 -11 53 0
45 3 56 14 52 10 -4 9 2 -3 21 -16 24 -16 25 1 23 10 -2 26 2 35 8 15 9 15 11
-3 24 -15 10 -17 17 -9 27 8 10 8 19 -2 34 -16 27 -28 27 -23 1 2 -11 -1 -20
-6 -20 -6 0 -9 6 -6 13 2 6 -2 20 -11 30 -14 15 -13 17 1 17 10 0 17 5 17 11
0 6 -7 9 -15 5 -13 -5 -16 0 -15 29 0 3 -4 11 -10 18 -43 53 -77 106 -72 113
4 4 2 4 -4 1 -7 -4 -17 0 -24 8 -23 28 -132 87 -168 92 -20 3 -41 8 -47 13 -5
4 -35 6 -65 5 -33 -2 -58 2 -62 9 -6 8 -8 7 -8 -1 0 -19 -20 -16 -37 5 -14 16
-14 16 -9 0 3 -10 1 -18 -4 -18 -6 0 -10 6 -10 13 0 8 -4 7 -10 -3 -9 -13 -11
-13 -20 0 -6 10 -10 11 -10 3 0 -7 -9 -13 -20 -13 -11 0 -20 6 -20 13 0 7 -3
8 -8 2 -10 -15 -192 -15 -192 -1 0 7 -3 8 -8 1 -10 -14 -192 -15 -192 -1 0 6
-5 4 -10 -4 -9 -13 -11 -13 -20 0 -6 10 -10 11 -10 3 0 -7 -9 -13 -20 -13 -11
0 -20 6 -20 13 0 8 -3 9 -8 1 -9 -14 -105 -14 -114 0 -6 8 -8 8 -8 0 0 -15
-150 -15 -150 0 0 8 -2 8 -8 0 -9 -14 -145 -14 -154 0 -6 8 -8 8 -8 0 0 -15
-150 -15 -150 0 0 8 -2 8 -8 0 -9 -14 -145 -14 -154 0 -6 8 -8 8 -8 0 0 -15
-150 -15 -150 0 0 8 -2 8 -8 0 -9 -14 -145 -14 -154 0 -6 8 -8 8 -8 0 0 -15
-150 -15 -150 0 0 8 -3 8 -8 0 -10 -14 -232 -14 -232 0 0 7 -3 8 -8 1 -10 -14
-192 -15 -192 -1 0 6 -5 4 -10 -4 -9 -13 -11 -13 -20 0 -6 10 -10 11 -10 3 0
-7 -9 -13 -20 -13 -11 0 -20 6 -20 13 0 7 -3 8 -8 2 -10 -15 -192 -15 -192 -1
0 7 -3 8 -8 1 -10 -14 -192 -15 -192 -1 0 6 -5 4 -10 -4 -9 -13 -11 -13 -20 0
-6 10 -10 11 -10 3 0 -7 -9 -13 -20 -13 -11 0 -20 6 -20 13 0 7 -3 8 -8 2 -10
-15 -192 -15 -192 -1 0 7 -3 8 -8 1 -10 -15 -305 -15 -314 -1 -5 7 -8 7 -8 1
0 -14 -190 -15 -190 0 0 5 -5 3 -10 -5 -9 -13 -11 -13 -20 0 -6 10 -10 11 -10
3 0 -7 -9 -13 -20 -13 -11 0 -20 6 -20 13 0 7 -3 8 -8 2 -10 -15 -192 -16
-192 -1 0 6 -5 4 -10 -4 -9 -13 -12 -13 -21 3 -6 9 -15 15 -20 11 -6 -3 -8 5
-5 20 4 25 1 34 -7 19z m4434 -426 c-9 -11 -8 -17 4 -27 19 -15 11 -30 -13
-23 -11 2 -18 14 -18 28 0 13 4 21 8 19 8 -5 12 11 8 31 -1 6 4 5 11 -2 9 -9
9 -15 0 -26z m14 -157 c3 -5 1 -10 -4 -10 -6 0 -11 5 -11 10 0 6 2 10 4 10 3
0 8 -4 11 -10z m9 -67 c5 -11 1 -22 -11 -30 -10 -7 -23 -16 -29 -21 -7 -7 -11
0 -11 20 0 19 3 24 9 16 4 -7 8 -10 9 -5 1 4 3 12 4 17 1 6 3 12 4 15 3 12 19
4 25 -12z m-29 -107 c1 -13 8 -31 18 -40 23 -23 21 -33 -5 -47 -13 -7 -26 -16
-29 -21 -3 -5 -6 5 -6 22 0 20 3 26 9 18 4 -7 8 -11 9 -8 0 3 2 13 4 23 2 11
-1 17 -9 14 -8 -3 -11 7 -10 32 3 46 3 46 12 37 4 -4 7 -18 7 -30z m0 -160 c1
-13 8 -31 18 -40 23 -23 21 -33 -5 -47 -13 -7 -26 -16 -29 -21 -3 -5 -6 5 -6
22 0 20 3 26 9 18 4 -7 8 -11 9 -8 0 3 2 13 4 23 2 11 -1 17 -9 14 -8 -3 -11
7 -10 32 3 46 3 46 12 37 4 -4 7 -18 7 -30z m0 -160 c1 -13 8 -31 18 -40 23
-23 21 -33 -5 -47 -13 -7 -26 -16 -29 -21 -3 -5 -6 5 -6 22 0 20 3 26 9 18 4
-7 8 -11 9 -8 0 3 2 13 4 23 2 11 -1 17 -9 14 -8 -3 -11 7 -10 32 3 46 3 46
12 37 4 -4 7 -18 7 -30z m0 -160 c1 -13 8 -31 18 -40 23 -23 21 -33 -5 -47
-13 -7 -26 -16 -29 -21 -3 -5 -6 5 -6 22 0 20 3 26 9 18 4 -7 8 -11 9 -8 0 3
2 13 4 23 2 11 -1 17 -9 14 -8 -3 -11 7 -10 32 3 46 3 46 12 37 4 -4 7 -18 7
-30z m0 -160 c1 -13 8 -31 18 -40 23 -23 21 -33 -5 -47 -13 -7 -26 -16 -29
-21 -3 -5 -6 5 -6 22 0 20 3 26 9 18 4 -7 8 -11 9 -8 0 3 2 13 4 23 2 11 -1
17 -9 14 -8 -3 -11 7 -10 32 3 46 3 46 12 37 4 -4 7 -18 7 -30z m0 -160 c1
-13 8 -31 18 -40 23 -23 21 -33 -5 -47 -13 -7 -26 -16 -29 -21 -3 -5 -6 5 -6
22 0 20 3 26 9 18 4 -7 8 -11 9 -8 0 3 2 13 4 23 2 11 -1 17 -9 14 -8 -3 -11
7 -10 32 3 46 3 46 12 37 4 -4 7 -18 7 -30z m0 -160 c1 -13 8 -31 18 -40 23
-23 21 -33 -5 -47 -13 -7 -26 -16 -29 -21 -3 -5 -6 5 -6 22 0 20 3 26 9 18 4
-7 8 -11 9 -8 0 3 2 13 4 23 2 11 -1 17 -9 14 -8 -3 -11 7 -10 32 3 46 3 46
12 37 4 -4 7 -18 7 -30z m0 -160 c1 -13 8 -31 18 -40 23 -23 21 -33 -5 -47
-13 -7 -26 -16 -29 -21 -3 -5 -6 5 -6 22 0 20 3 26 9 18 4 -7 8 -11 9 -8 0 3
2 13 4 23 2 11 -1 17 -9 14 -8 -3 -11 7 -10 32 3 46 3 46 12 37 4 -4 7 -18 7
-30z m0 -160 c1 -13 8 -31 18 -40 23 -24 21 -34 -8 -48 -14 -6 -25 -15 -25
-20 0 -5 5 -6 12 -2 7 4 8 3 4 -5 -4 -6 -12 -9 -17 -5 -11 7 -8 36 5 46 14 10
16 40 2 35 -8 -3 -11 7 -10 32 3 46 3 46 12 37 4 -4 7 -18 7 -30z m1 -178 c4
-7 3 -8 -4 -4 -17 10 -15 -5 2 -18 13 -9 12 -16 -5 -46 -13 -23 -18 -27 -13
-11 3 13 2 21 -3 18 -5 -3 -9 3 -9 13 0 10 5 16 10 13 5 -4 7 1 3 11 -11 27 5
47 19 24z m-280 -353 c-7 -11 -15 -18 -18 -15 -2 3 -16 -3 -31 -12 -25 -17
-27 -17 -37 2 -10 19 -33 29 -27 13 1 -5 -2 -8 -8 -8 -5 0 -10 5 -11 12 -1 6
8 10 22 8 14 -1 27 2 30 6 3 5 19 7 35 4 17 -3 28 -2 25 3 -2 4 4 8 15 8 16 0
17 -3 5 -21z m-4038 -12 c2 -7 8 -13 13 -13 4 0 6 8 3 18 -5 14 -4 14 4 3 7
-10 7 -21 1 -33 -10 -18 -20 -25 -17 -10 0 4 -2 15 -7 25 -7 17 -8 17 -22 -3
-13 -18 -16 -19 -35 -5 -16 11 -25 12 -35 3 -7 -6 -16 -8 -20 -5 -3 4 -12 2
-20 -4 -18 -16 -17 -3 3 19 12 14 29 18 71 18 36 -1 58 -6 61 -13z m158 4 c4
-4 13 -2 20 4 9 8 15 5 23 -9 14 -27 3 -34 -25 -15 -22 14 -24 14 -30 -2 -6
-16 -8 -16 -16 -1 -6 11 -14 14 -21 8 -18 -13 -40 -9 -42 9 -2 12 7 15 41 14
24 0 46 -4 50 -8z m285 -9 c7 -12 5 -16 -7 -14 -8 1 -19 8 -23 15 -10 16 -22
16 -31 1 -5 -8 -9 -8 -13 2 -8 21 62 17 74 -4z m480 0 c7 -12 5 -16 -7 -14 -8
1 -19 8 -23 15 -10 16 -22 16 -31 1 -5 -8 -9 -8 -13 2 -8 21 62 17 74 -4z
m195 9 c4 -4 13 -2 20 4 9 8 15 5 23 -9 14 -27 3 -34 -25 -15 -22 14 -24 14
-30 -2 -6 -16 -8 -16 -16 -1 -6 11 -14 14 -21 8 -18 -13 -40 -9 -42 9 -2 12 7
15 41 14 24 0 46 -4 50 -8z m285 -9 c7 -12 5 -16 -7 -14 -8 1 -19 8 -23 15
-10 16 -22 16 -31 1 -5 -8 -9 -8 -13 2 -8 21 62 17 74 -4z m443 10 c-3 -5 -9
-6 -14 -3 -4 3 -10 0 -12 -7 -3 -8 -6 -7 -10 3 -4 11 1 15 17 15 13 0 21 -4
19 -8z m1477 -10 c7 -12 5 -16 -7 -14 -8 1 -19 8 -23 15 -10 16 -22 16 -31 1
-5 -8 -9 -8 -13 2 -8 21 62 17 74 -4z m480 0 c13 -24 -7 -32 -23 -10 -16 24
-28 27 -38 12 -5 -8 -9 -8 -13 2 -8 21 62 17 74 -4z"/>
<path d="M5010 3416 c0 -2 8 -10 18 -17 15 -13 16 -12 3 4 -13 16 -21 21 -21
13z"/>
<path d="M5033 3213 c4 -3 1 -13 -6 -22 -11 -14 -10 -14 5 -2 16 12 16 31 1
31 -4 0 -3 -3 0 -7z"/>
<path d="M5033 3053 c4 -3 1 -13 -6 -22 -11 -14 -10 -14 5 -2 16 12 16 31 1
31 -4 0 -3 -3 0 -7z"/>
<path d="M5033 2893 c4 -3 1 -13 -6 -22 -11 -14 -10 -14 5 -2 16 12 16 31 1
31 -4 0 -3 -3 0 -7z"/>
<path d="M5033 2733 c4 -3 1 -13 -6 -22 -11 -14 -10 -14 5 -2 16 12 16 31 1
31 -4 0 -3 -3 0 -7z"/>
<path d="M5033 2573 c4 -3 1 -13 -6 -22 -11 -14 -10 -14 5 -2 16 12 16 31 1
31 -4 0 -3 -3 0 -7z"/>
<path d="M5033 2413 c4 -3 1 -13 -6 -22 -11 -14 -10 -14 5 -2 16 12 16 31 1
31 -4 0 -3 -3 0 -7z"/>
<path d="M5033 2253 c4 -3 1 -13 -6 -22 -11 -14 -10 -14 5 -2 16 12 16 31 1
31 -4 0 -3 -3 0 -7z"/>
<path d="M5033 2093 c4 -3 1 -13 -6 -22 -11 -14 -10 -14 5 -2 16 12 16 31 1
31 -4 0 -3 -3 0 -7z"/>
<path d="M5033 1933 c4 -3 1 -13 -6 -22 -11 -14 -10 -14 5 -2 16 12 16 31 1
31 -4 0 -3 -3 0 -7z"/>
<path d="M5033 1773 c4 -3 1 -13 -6 -22 -11 -14 -10 -14 5 -2 16 12 16 31 1
31 -4 0 -3 -3 0 -7z"/>
<path d="M5015 1609 c-4 -6 -5 -12 -2 -15 2 -3 7 2 10 11 7 17 1 20 -8 4z"/>
<path d="M4665 1289 c-4 -5 -1 -9 5 -9 6 0 8 -5 5 -11 -4 -6 2 -5 14 3 12 7
21 15 21 18 0 10 -39 9 -45 -1z"/>
<path d="M590 1278 c0 -4 4 -8 9 -8 6 0 12 4 15 8 3 5 -1 9 -9 9 -8 0 -15 -4
-15 -9z"/>
<path d="M645 1276 c21 -15 35 -12 35 7 0 7 -4 6 -10 -3 -6 -10 -10 -11 -10
-2 0 6 -8 12 -17 12 -15 0 -14 -2 2 -14z"/>
<path d="M785 1279 c-3 -4 2 -6 10 -5 21 3 28 13 10 13 -9 0 -18 -4 -20 -8z"/>
<path d="M835 1280 c3 -5 8 -10 11 -10 2 0 4 5 4 10 0 6 -5 10 -11 10 -5 0 -7
-4 -4 -10z"/>
<path d="M890 1281 c0 -6 4 -13 10 -16 6 -3 7 1 4 9 -7 18 -14 21 -14 7z"/>
<path d="M1745 1279 c-3 -4 2 -6 10 -5 21 3 28 13 10 13 -9 0 -18 -4 -20 -8z"/>
<path d="M1795 1280 c3 -5 8 -10 11 -10 2 0 4 5 4 10 0 6 -5 10 -11 10 -5 0
-7 -4 -4 -10z"/>
<path d="M1850 1281 c0 -6 4 -13 10 -16 6 -3 7 1 4 9 -7 18 -14 21 -14 7z"/>
<path d="M4490 1281 c0 -6 4 -13 10 -16 6 -3 7 1 4 9 -7 18 -14 21 -14 7z"/>
<path d="M853 3849 c-2 -23 3 -25 10 -4 4 8 3 16 -1 19 -4 3 -9 -4 -9 -15z"/>
<path d="M930 3860 c0 -5 5 -10 11 -10 5 0 7 5 4 10 -3 6 -8 10 -11 10 -2 0
-4 -4 -4 -10z"/>
<path d="M1170 3860 c0 -5 5 -10 11 -10 5 0 7 5 4 10 -3 6 -8 10 -11 10 -2 0
-4 -4 -4 -10z"/>
<path d="M1490 3860 c0 -5 5 -10 11 -10 5 0 7 5 4 10 -3 6 -8 10 -11 10 -2 0
-4 -4 -4 -10z"/>
<path d="M1730 3860 c0 -5 5 -10 11 -10 5 0 7 5 4 10 -3 6 -8 10 -11 10 -2 0
-4 -4 -4 -10z"/>
<path d="M1970 3860 c0 -5 5 -10 11 -10 5 0 7 5 4 10 -3 6 -8 10 -11 10 -2 0
-4 -4 -4 -10z"/>
<path d="M2210 3860 c0 -5 5 -10 11 -10 5 0 7 5 4 10 -3 6 -8 10 -11 10 -2 0
-4 -4 -4 -10z"/>
<path d="M2450 3860 c0 -5 5 -10 11 -10 5 0 7 5 4 10 -3 6 -8 10 -11 10 -2 0
-4 -4 -4 -10z"/>
<path d="M2615 3861 c-3 -5 -2 -12 3 -15 5 -3 9 1 9 9 0 17 -3 19 -12 6z"/>
<path d="M2673 3855 c0 -8 4 -12 9 -9 5 3 6 10 3 15 -9 13 -12 11 -12 -6z"/>
<path d="M2775 3861 c-3 -5 -2 -12 3 -15 5 -3 9 1 9 9 0 17 -3 19 -12 6z"/>
<path d="M2833 3855 c0 -8 4 -12 9 -9 5 3 6 10 3 15 -9 13 -12 11 -12 -6z"/>
<path d="M2935 3861 c-3 -5 -2 -12 3 -15 5 -3 9 1 9 9 0 17 -3 19 -12 6z"/>
<path d="M2993 3855 c0 -8 4 -12 9 -9 5 3 6 10 3 15 -9 13 -12 11 -12 -6z"/>
<path d="M3095 3861 c-3 -5 -2 -12 3 -15 5 -3 9 1 9 9 0 17 -3 19 -12 6z"/>
<path d="M3153 3855 c0 -8 4 -12 9 -9 5 3 6 10 3 15 -9 13 -12 11 -12 -6z"/>
<path d="M3255 3861 c-3 -5 -2 -12 3 -15 5 -3 9 1 9 9 0 17 -3 19 -12 6z"/>
<path d="M3313 3855 c0 -8 4 -12 9 -9 5 3 6 10 3 15 -9 13 -12 11 -12 -6z"/>
<path d="M3415 3861 c-3 -5 -2 -12 3 -15 5 -3 9 1 9 9 0 17 -3 19 -12 6z"/>
<path d="M3473 3855 c0 -8 4 -12 9 -9 5 3 6 10 3 15 -9 13 -12 11 -12 -6z"/>
<path d="M3575 3861 c-3 -5 -2 -12 3 -15 5 -3 9 1 9 9 0 17 -3 19 -12 6z"/>
<path d="M3633 3855 c0 -8 4 -12 9 -9 5 3 6 10 3 15 -9 13 -12 11 -12 -6z"/>
<path d="M3735 3861 c-3 -5 -2 -12 3 -15 5 -3 9 1 9 9 0 17 -3 19 -12 6z"/>
<path d="M3793 3855 c0 -8 4 -12 9 -9 5 3 6 10 3 15 -9 13 -12 11 -12 -6z"/>
<path d="M3893 3849 c-2 -23 3 -25 10 -4 4 8 3 16 -1 19 -4 3 -9 -4 -9 -15z"/>
<path d="M3970 3860 c0 -5 5 -10 11 -10 5 0 7 5 4 10 -3 6 -8 10 -11 10 -2 0
-4 -4 -4 -10z"/>
<path d="M4210 3860 c0 -5 5 -10 11 -10 5 0 7 5 4 10 -3 6 -8 10 -11 10 -2 0
-4 -4 -4 -10z"/>
<path d="M4450 3860 c0 -5 5 -10 11 -10 5 0 7 5 4 10 -3 6 -8 10 -11 10 -2 0
-4 -4 -4 -10z"/>
<path d="M1034 3849 c-3 -6 -1 -16 4 -21 8 -8 11 -5 9 11 -1 24 -3 25 -13 10z"/>
<path d="M1110 3856 c0 -2 8 -10 18 -17 15 -13 16 -12 3 4 -13 16 -21 21 -21
13z"/>
<path d="M1275 3850 c-8 -13 3 -30 18 -30 8 0 7 3 -2 9 -7 5 -10 14 -7 20 4 6
5 11 2 11 -3 0 -8 -4 -11 -10z"/>
<path d="M1430 3856 c0 -2 8 -10 18 -17 15 -13 16 -12 3 4 -13 16 -21 21 -21
13z"/>
<path d="M1655 3849 c-4 -6 -5 -12 -2 -15 2 -3 7 2 10 11 7 17 1 20 -8 4z"/>
<path d="M1834 3849 c-3 -6 -1 -16 4 -21 8 -8 11 -5 9 11 -1 24 -3 25 -13 10z"/>
<path d="M1910 3856 c0 -2 8 -10 18 -17 15 -13 16 -12 3 4 -13 16 -21 21 -21
13z"/>
<path d="M2135 3849 c-4 -6 -5 -12 -2 -15 2 -3 7 2 10 11 7 17 1 20 -8 4z"/>
<path d="M2314 3849 c-3 -6 -1 -16 4 -21 8 -8 11 -5 9 11 -1 24 -3 25 -13 10z"/>
<path d="M2390 3856 c0 -2 8 -10 18 -17 15 -13 16 -12 3 4 -13 16 -21 21 -21
13z"/>
<path d="M4074 3849 c-3 -6 -1 -16 4 -21 8 -8 11 -5 9 11 -1 24 -3 25 -13 10z"/>
<path d="M4150 3856 c0 -2 8 -10 18 -17 15 -13 16 -12 3 4 -13 16 -21 21 -21
13z"/>
<path d="M4375 3849 c-4 -6 -5 -12 -2 -15 2 -3 7 2 10 11 7 17 1 20 -8 4z"/>
<path d="M4554 3849 c-3 -6 -1 -16 4 -21 8 -8 11 -5 9 11 -1 24 -3 25 -13 10z"/>
<path d="M400 3846 c0 -2 8 -10 18 -17 15 -13 16 -12 3 4 -13 16 -21 21 -21
13z"/>
<path d="M695 3840 c-3 -5 -1 -10 4 -10 6 0 11 5 11 10 0 6 -2 10 -4 10 -3 0
-8 -4 -11 -10z"/>
<path d="M790 3839 c0 -5 5 -7 10 -4 6 3 10 8 10 11 0 2 -4 4 -10 4 -5 0 -10
-5 -10 -11z"/>
<path d="M1066 3837 c3 -10 9 -15 12 -12 3 3 0 11 -7 18 -10 9 -11 8 -5 -6z"/>
<path d="M1590 3842 c0 -5 7 -9 15 -9 8 0 12 4 9 9 -3 4 -9 8 -15 8 -5 0 -9
-4 -9 -8z"/>
<path d="M1866 3837 c3 -10 9 -15 12 -12 3 3 0 11 -7 18 -10 9 -11 8 -5 -6z"/>
<path d="M2070 3842 c0 -5 7 -9 15 -9 8 0 12 4 9 9 -3 4 -9 8 -15 8 -5 0 -9
-4 -9 -8z"/>
<path d="M2346 3837 c3 -10 9 -15 12 -12 3 3 0 11 -7 18 -10 9 -11 8 -5 -6z"/>
<path d="M2550 3839 c0 -5 5 -7 10 -4 6 3 10 8 10 11 0 2 -4 4 -10 4 -5 0 -10
-5 -10 -11z"/>
<path d="M4106 3837 c3 -10 9 -15 12 -12 3 3 0 11 -7 18 -10 9 -11 8 -5 -6z"/>
<path d="M4310 3842 c0 -5 7 -9 15 -9 8 0 12 4 9 9 -3 4 -9 8 -15 8 -5 0 -9
-4 -9 -8z"/>
<path d="M1175 3831 c-9 -15 13 -23 32 -11 15 9 14 10 -6 4 -16 -4 -21 -3 -17
5 4 6 5 11 2 11 -3 0 -7 -4 -11 -9z"/>
<path d="M1355 3830 c3 -5 8 -10 11 -10 2 0 4 5 4 10 0 6 -5 10 -11 10 -5 0
-7 -4 -4 -10z"/>
<path d="M1395 3830 c-3 -6 1 -7 9 -4 18 7 21 14 7 14 -6 0 -13 -4 -16 -10z"/>
<path d="M1495 3831 c-9 -15 13 -23 32 -11 15 9 14 10 -6 4 -16 -4 -21 -3 -17
5 4 6 5 11 2 11 -3 0 -7 -4 -11 -9z"/>
<path d="M1975 3831 c-9 -15 13 -23 32 -11 15 9 14 10 -6 4 -16 -4 -21 -3 -17
5 4 6 5 11 2 11 -3 0 -7 -4 -11 -9z"/>
<path d="M2455 3831 c-9 -15 13 -23 32 -11 15 9 14 10 -6 4 -16 -4 -21 -3 -17
5 4 6 5 11 2 11 -3 0 -7 -4 -11 -9z"/>
<path d="M2695 3831 c-6 -11 13 -26 22 -17 4 3 1 6 -6 6 -7 0 -9 5 -6 10 3 6
4 10 1 10 -3 0 -7 -4 -11 -9z"/>
<path d="M2855 3831 c-6 -11 13 -26 22 -17 4 3 1 6 -6 6 -7 0 -9 5 -6 10 3 6
4 10 1 10 -3 0 -7 -4 -11 -9z"/>
<path d="M3015 3831 c-6 -11 13 -26 22 -17 4 3 1 6 -6 6 -7 0 -9 5 -6 10 3 6
4 10 1 10 -3 0 -7 -4 -11 -9z"/>
<path d="M3175 3831 c-6 -11 13 -26 22 -17 4 3 1 6 -6 6 -7 0 -9 5 -6 10 3 6
4 10 1 10 -3 0 -7 -4 -11 -9z"/>
<path d="M3335 3831 c-6 -11 13 -26 22 -17 4 3 1 6 -6 6 -7 0 -9 5 -6 10 3 6
4 10 1 10 -3 0 -7 -4 -11 -9z"/>
<path d="M3495 3831 c-6 -11 13 -26 22 -17 4 3 1 6 -6 6 -7 0 -9 5 -6 10 3 6
4 10 1 10 -3 0 -7 -4 -11 -9z"/>
<path d="M3655 3831 c-6 -11 13 -26 22 -17 4 3 1 6 -6 6 -7 0 -9 5 -6 10 3 6
4 10 1 10 -3 0 -7 -4 -11 -9z"/>
<path d="M3815 3831 c-6 -11 13 -26 22 -17 4 3 1 6 -6 6 -7 0 -9 5 -6 10 3 6
4 10 1 10 -3 0 -7 -4 -11 -9z"/>
<path d="M4215 3831 c-9 -15 13 -23 32 -11 15 9 14 10 -6 4 -16 -4 -21 -3 -17
5 4 6 5 11 2 11 -3 0 -7 -4 -11 -9z"/>
<path d="M535 3821 c-3 -5 0 -13 6 -17 8 -5 9 -3 4 6 -6 10 -4 12 9 7 10 -4
15 -3 11 3 -8 13 -22 13 -30 1z"/>
<path d="M670 3820 c0 -6 7 -10 15 -10 8 0 15 2 15 4 0 2 -7 6 -15 10 -8 3
-15 1 -15 -4z"/>
<path d="M758 3823 c7 -3 16 -2 19 1 4 3 -2 6 -13 5 -11 0 -14 -3 -6 -6z"/>
<path d="M870 3820 c0 -5 5 -10 10 -10 6 0 10 5 10 10 0 6 -4 10 -10 10 -5 0
-10 -4 -10 -10z"/>
<path d="M950 3820 c0 -5 7 -7 15 -4 8 4 15 8 15 10 0 2 -7 4 -15 4 -8 0 -15
-4 -15 -10z"/>
<path d="M998 3823 c7 -3 16 -2 19 1 4 3 -2 6 -13 5 -11 0 -14 -3 -6 -6z"/>
<path d="M1238 3823 c7 -3 16 -2 19 1 4 3 -2 6 -13 5 -11 0 -14 -3 -6 -6z"/>
<path d="M1318 3823 c7 -3 16 -2 19 1 4 3 -2 6 -13 5 -11 0 -14 -3 -6 -6z"/>
<path d="M1558 3823 c7 -3 16 -2 19 1 4 3 -2 6 -13 5 -11 0 -14 -3 -6 -6z"/>
<path d="M1670 3820 c0 -5 5 -10 10 -10 6 0 10 5 10 10 0 6 -4 10 -10 10 -5 0
-10 -4 -10 -10z"/>
<path d="M1750 3820 c0 -5 7 -7 15 -4 8 4 15 8 15 10 0 2 -7 4 -15 4 -8 0 -15
-4 -15 -10z"/>
<path d="M1798 3823 c7 -3 16 -2 19 1 4 3 -2 6 -13 5 -11 0 -14 -3 -6 -6z"/>
<path d="M2038 3823 c7 -3 16 -2 19 1 4 3 -2 6 -13 5 -11 0 -14 -3 -6 -6z"/>
<path d="M2150 3820 c0 -5 5 -10 10 -10 6 0 10 5 10 10 0 6 -4 10 -10 10 -5 0
-10 -4 -10 -10z"/>
<path d="M2230 3820 c0 -5 7 -7 15 -4 8 4 15 8 15 10 0 2 -7 4 -15 4 -8 0 -15
-4 -15 -10z"/>
<path d="M2278 3823 c7 -3 16 -2 19 1 4 3 -2 6 -13 5 -11 0 -14 -3 -6 -6z"/>
<path d="M2518 3823 c7 -3 16 -2 19 1 4 3 -2 6 -13 5 -11 0 -14 -3 -6 -6z"/>
<path d="M2577 3819 c7 -7 15 -10 18 -7 3 3 -2 9 -12 12 -14 6 -15 5 -6 -5z"/>
<path d="M2737 3819 c7 -7 15 -10 18 -7 3 3 -2 9 -12 12 -14 6 -15 5 -6 -5z"/>
<path d="M2897 3819 c7 -7 15 -10 18 -7 3 3 -2 9 -12 12 -14 6 -15 5 -6 -5z"/>
<path d="M3057 3819 c7 -7 15 -10 18 -7 3 3 -2 9 -12 12 -14 6 -15 5 -6 -5z"/>
<path d="M3217 3819 c7 -7 15 -10 18 -7 3 3 -2 9 -12 12 -14 6 -15 5 -6 -5z"/>
<path d="M3377 3819 c7 -7 15 -10 18 -7 3 3 -2 9 -12 12 -14 6 -15 5 -6 -5z"/>
<path d="M3537 3819 c7 -7 15 -10 18 -7 3 3 -2 9 -12 12 -14 6 -15 5 -6 -5z"/>
<path d="M3697 3819 c7 -7 15 -10 18 -7 3 3 -2 9 -12 12 -14 6 -15 5 -6 -5z"/>
<path d="M3910 3820 c0 -5 5 -10 10 -10 6 0 10 5 10 10 0 6 -4 10 -10 10 -5 0
-10 -4 -10 -10z"/>
<path d="M3990 3820 c0 -5 7 -7 15 -4 8 4 15 8 15 10 0 2 -7 4 -15 4 -8 0 -15
-4 -15 -10z"/>
<path d="M4038 3823 c7 -3 16 -2 19 1 4 3 -2 6 -13 5 -11 0 -14 -3 -6 -6z"/>
<path d="M4278 3823 c7 -3 16 -2 19 1 4 3 -2 6 -13 5 -11 0 -14 -3 -6 -6z"/>
<path d="M4390 3820 c0 -5 5 -10 10 -10 6 0 10 5 10 10 0 6 -4 10 -10 10 -5 0
-10 -4 -10 -10z"/>
<path d="M4666 3818 c3 -5 10 -6 15 -3 13 9 11 12 -6 12 -8 0 -12 -4 -9 -9z"/>
<path d="M247 3686 c-3 -8 2 -20 11 -27 14 -11 15 -11 5 0 -6 7 -9 20 -6 27 3
8 3 14 0 14 -3 0 -7 -6 -10 -14z"/>
<path d="M4930 3659 c0 -5 5 -7 10 -4 6 3 10 8 10 11 0 2 -4 4 -10 4 -5 0 -10
-5 -10 -11z"/>
<path d="M155 3601 c-3 -5 -2 -12 3 -15 5 -3 9 1 9 9 0 17 -3 19 -12 6z"/>
<path d="M5003 3598 c-5 -7 -10 -24 -11 -38 -1 -18 1 -21 8 -10 5 8 6 18 3 22
-2 5 1 15 7 23 7 8 10 15 7 15 -2 0 -9 -6 -14 -12z"/>
<path d="M180 3566 c0 -2 8 -10 18 -17 15 -13 16 -12 3 4 -13 16 -21 21 -21
13z"/>
<path d="M170 3540 c0 -5 5 -10 11 -10 5 0 7 5 4 10 -3 6 -8 10 -11 10 -2 0
-4 -4 -4 -10z"/>
<path d="M5014 3542 c4 -3 14 -7 22 -8 9 -1 13 0 10 4 -4 3 -14 7 -22 8 -9 1
-13 0 -10 -4z"/>
<path d="M159 3495 c0 0 -2 -8 -4 -17 -3 -16 -1 -16 21 -1 13 8 24 16 24 17 0
1 -38 3 -41 1z"/>
<path d="M5050 3476 c7 -7 13 -7 20 0 6 6 3 10 -10 10 -13 0 -16 -4 -10 -10z"/>
<path d="M130 3441 c0 -6 4 -13 10 -16 6 -3 7 1 4 9 -7 18 -14 21 -14 7z"/>
<path d="M5056 3421 c9 -9 34 -9 34 -1 0 5 -9 8 -20 7 -10 -1 -17 -3 -14 -6z"/>
<path d="M5050 3365 c-11 -13 -15 -13 -22 -3 -8 10 -9 10 -6 -1 6 -23 22 -23
36 -1 15 24 10 26 -8 5z"/>
<path d="M171 3354 c0 -11 3 -14 6 -6 3 7 2 16 -1 19 -3 4 -6 -2 -5 -13z"/>
<path d="M5071 3347 c-13 -21 -12 -21 5 -5 10 10 16 20 13 22 -3 3 -11 -5 -18
-17z"/>
<path d="M171 3314 c0 -11 3 -14 6 -6 3 7 2 16 -1 19 -3 4 -6 -2 -5 -13z"/>
<path d="M153 3287 c0 -8 6 -14 14 -14 9 0 10 4 2 14 -6 7 -12 13 -14 13 -1 0
-2 -6 -2 -13z"/>
<path d="M157 3249 c7 -7 15 -10 18 -7 3 3 -2 9 -12 12 -14 6 -15 5 -6 -5z"/>
<path d="M136 3222 c-3 -5 1 -9 9 -9 8 0 12 4 9 9 -3 4 -7 8 -9 8 -2 0 -6 -4
-9 -8z"/>
<path d="M5036 3148 c3 -4 11 -5 19 -1 21 7 19 12 -4 10 -11 0 -18 -5 -15 -9z"/>
<path d="M156 3107 c3 -10 9 -15 12 -12 3 3 0 11 -7 18 -10 9 -11 8 -5 -6z"/>
<path d="M176 3085 c-3 -8 -1 -15 4 -15 6 0 10 7 10 15 0 8 -2 15 -4 15 -2 0
-6 -7 -10 -15z"/>
<path d="M140 3045 c0 -2 6 -8 13 -14 10 -8 14 -7 14 2 0 8 -6 14 -14 14 -7 0
-13 -1 -13 -2z"/>
<path d="M136 2998 c3 -5 10 -6 15 -3 13 9 11 12 -6 12 -8 0 -12 -4 -9 -9z"/>
<path d="M5036 2988 c3 -4 11 -5 19 -1 21 7 19 12 -4 10 -11 0 -18 -5 -15 -9z"/>
<path d="M165 2979 c-6 -8 -4 -10 5 -4 9 5 10 1 6 -16 -6 -21 -6 -22 5 -6 7
13 8 22 1 29 -6 6 -12 6 -17 -3z"/>
<path d="M171 2914 c0 -11 3 -14 6 -6 3 7 2 16 -1 19 -3 4 -6 -2 -5 -13z"/>
<path d="M95 2880 c-3 -5 -1 -10 4 -10 6 0 11 5 11 10 0 6 -2 10 -4 10 -3 0
-8 -4 -11 -10z"/>
<path d="M144 2879 c-5 -8 -3 -9 6 -4 7 4 16 2 22 -6 8 -12 9 -12 6 0 -6 20
-24 25 -34 10z"/>
<path d="M171 2834 c0 -11 3 -14 6 -6 3 7 2 16 -1 19 -3 4 -6 -2 -5 -13z"/>
<path d="M5036 2828 c3 -4 11 -5 19 -1 21 7 19 12 -4 10 -11 0 -18 -5 -15 -9z"/>
<path d="M134 2798 c-3 -5 0 -7 8 -6 7 2 12 -4 10 -12 -2 -8 0 -11 4 -7 14 13
12 34 -3 34 -7 0 -16 -4 -19 -9z"/>
<path d="M135 2739 c-3 -4 2 -6 10 -5 21 3 28 13 10 13 -9 0 -18 -4 -20 -8z"/>
<path d="M159 2692 c-13 -16 -13 -16 5 -2 18 14 19 13 13 -2 -3 -10 -2 -18 3
-18 12 0 13 27 1 34 -5 3 -15 -2 -22 -12z"/>
<path d="M5036 2668 c3 -4 11 -5 19 -1 21 7 19 12 -4 10 -11 0 -18 -5 -15 -9z"/>
<path d="M136 2658 c3 -5 10 -6 15 -3 13 9 11 12 -6 12 -8 0 -12 -4 -9 -9z"/>
<path d="M156 2579 c3 -5 10 -6 16 -3 7 5 9 1 5 -9 -3 -10 -2 -17 4 -17 18 0
5 33 -14 36 -9 1 -15 -2 -11 -7z"/>
<path d="M136 2518 c3 -4 11 -5 19 -1 21 7 19 12 -4 10 -11 0 -18 -5 -15 -9z"/>
<path d="M5036 2508 c3 -4 11 -5 19 -1 21 7 19 12 -4 10 -11 0 -18 -5 -15 -9z"/>
<path d="M170 2475 c0 -8 2 -15 4 -15 2 0 6 7 10 15 3 8 1 15 -4 15 -6 0 -10
-7 -10 -15z"/>
<path d="M171 2434 c0 -11 3 -14 6 -6 3 7 2 16 -1 19 -3 4 -6 -2 -5 -13z"/>
<path d="M95 2400 c-3 -5 -1 -10 4 -10 6 0 11 5 11 10 0 6 -2 10 -4 10 -3 0
-8 -4 -11 -10z"/>
<path d="M144 2399 c-5 -8 -3 -9 6 -4 7 4 16 2 22 -6 8 -12 9 -12 6 0 -6 20
-24 25 -34 10z"/>
<path d="M171 2354 c0 -11 3 -14 6 -6 3 7 2 16 -1 19 -3 4 -6 -2 -5 -13z"/>
<path d="M5036 2348 c3 -4 11 -5 19 -1 21 7 19 12 -4 10 -11 0 -18 -5 -15 -9z"/>
<path d="M136 2321 c-3 -4 6 -7 19 -7 14 0 22 2 19 5 -8 8 -34 10 -38 2z"/>
<path d="M157 2289 c7 -7 15 -10 18 -7 3 3 -2 9 -12 12 -14 6 -15 5 -6 -5z"/>
<path d="M136 2262 c-3 -5 1 -9 9 -9 8 0 12 4 9 9 -3 4 -7 8 -9 8 -2 0 -6 -4
-9 -8z"/>
<path d="M5036 2188 c3 -4 11 -5 19 -1 21 7 19 12 -4 10 -11 0 -18 -5 -15 -9z"/>
<path d="M156 2147 c3 -10 9 -15 12 -12 3 3 0 11 -7 18 -10 9 -11 8 -5 -6z"/>
<path d="M176 2125 c-3 -8 -1 -15 4 -15 6 0 10 7 10 15 0 8 -2 15 -4 15 -2 0
-6 -7 -10 -15z"/>
<path d="M140 2085 c0 -2 6 -8 13 -14 10 -8 14 -7 14 2 0 8 -6 14 -14 14 -7 0
-13 -1 -13 -2z"/>
<path d="M136 2038 c3 -5 10 -6 15 -3 13 9 11 12 -6 12 -8 0 -12 -4 -9 -9z"/>
<path d="M5036 2028 c3 -4 11 -5 19 -1 21 7 19 12 -4 10 -11 0 -18 -5 -15 -9z"/>
<path d="M165 2019 c-6 -8 -4 -10 5 -4 9 5 10 1 6 -16 -6 -21 -6 -22 5 -6 7
13 8 22 1 29 -6 6 -12 6 -17 -3z"/>
<path d="M171 1954 c0 -11 3 -14 6 -6 3 7 2 16 -1 19 -3 4 -6 -2 -5 -13z"/>
<path d="M95 1920 c-3 -5 -1 -10 4 -10 6 0 11 5 11 10 0 6 -2 10 -4 10 -3 0
-8 -4 -11 -10z"/>
<path d="M144 1919 c-5 -8 -3 -9 6 -4 7 4 16 2 22 -6 8 -12 9 -12 6 0 -6 20
-24 25 -34 10z"/>
<path d="M171 1874 c0 -11 3 -14 6 -6 3 7 2 16 -1 19 -3 4 -6 -2 -5 -13z"/>
<path d="M5036 1868 c3 -4 11 -5 19 -1 21 7 19 12 -4 10 -11 0 -18 -5 -15 -9z"/>
<path d="M167 1839 c7 -7 15 -10 18 -7 3 3 -2 9 -12 12 -14 6 -15 5 -6 -5z"/>
<path d="M140 1806 c0 -2 8 -10 18 -17 15 -13 16 -12 3 4 -13 16 -21 21 -21
13z"/>
<path d="M135 1740 c3 -5 8 -10 11 -10 2 0 4 5 4 10 0 6 -5 10 -11 10 -5 0 -7
-4 -4 -10z"/>
<path d="M176 1737 c3 -10 9 -15 12 -12 3 3 0 11 -7 18 -10 9 -11 8 -5 -6z"/>
<path d="M5071 1684 c0 -11 3 -14 6 -6 3 7 2 16 -1 19 -3 4 -6 -2 -5 -13z"/>
<path d="M5056 1627 c3 -10 9 -15 12 -12 3 3 0 11 -7 18 -10 9 -11 8 -5 -6z"/>
<path d="M176 1602 c-3 -5 1 -9 9 -9 8 0 12 4 9 9 -3 4 -7 8 -9 8 -2 0 -6 -4
-9 -8z"/>
<path d="M5015 1500 c3 -5 8 -10 11 -10 2 0 4 5 4 10 0 6 -5 10 -11 10 -5 0
-7 -4 -4 -10z"/>
<path d="M4924 1431 c3 -5 -1 -14 -9 -21 -7 -6 -11 -18 -8 -26 3 -9 0 -14 -7
-12 -7 2 -15 -4 -17 -12 -4 -13 -3 -13 6 0 10 13 11 13 11 0 1 -10 5 -7 13 8
7 12 16 20 20 16 4 -4 2 -12 -3 -19 -7 -8 -5 -12 4 -12 9 0 12 10 11 29 -2 21
1 28 11 24 25 -10 15 11 -12 22 -14 7 -23 8 -20 3z m13 -24 c0 -8 -6 -14 -14
-14 -9 0 -10 4 -2 14 6 7 12 13 14 13 1 0 2 -6 2 -13z"/>
<path d="M4856 1361 c-3 -5 1 -14 8 -20 12 -10 13 -8 9 8 -6 23 -9 25 -17 12z"/>
<path d="M397 1329 c7 -7 15 -10 18 -7 3 3 -2 9 -12 12 -14 6 -15 5 -6 -5z"/>
<path d="M4886 1323 c-6 -14 -5 -15 5 -6 7 7 10 15 7 18 -3 3 -9 -2 -12 -12z"/>
<path d="M454 1312 c5 -8 -1 -12 -16 -13 -18 -1 -19 -2 -4 -6 23 -6 43 12 25
22 -8 5 -10 4 -5 -3z"/>
<path d="M502 1291 c-10 -6 -10 -10 2 -20 10 -9 16 -9 21 -1 10 16 -7 31 -23
21z"/>
<path d="M4810 1296 c0 -2 8 -10 18 -17 15 -13 16 -12 3 4 -13 16 -21 21 -21
13z"/>
<path d="M935 1281 c-6 -11 29 -33 39 -24 7 7 -12 33 -25 33 -4 0 -10 -4 -14
-9z"/>
<path d="M1309 1286 c0 -1 -2 -10 -3 -21 -2 -16 3 -20 23 -19 30 2 54 -14 44
-29 -3 -6 -1 -7 6 -3 9 6 9 11 0 22 -14 17 2 19 21 2 8 -7 5 -1 -8 13 -12 14
-20 27 -18 30 4 3 -61 8 -65 5z m54 -15 c13 -2 7 -18 -8 -18 -8 0 -11 5 -8 10
4 6 0 8 -10 4 -9 -3 -19 -2 -21 2 -5 7 14 8 47 2z"/>
<path d="M1412 1278 c-19 -19 5 -40 30 -27 15 8 17 13 7 25 -14 17 -21 18 -37
2z m27 -19 c-15 -9 -32 -2 -24 11 3 5 13 6 21 3 12 -4 13 -8 3 -14z"/>
<path d="M1895 1281 c-6 -11 29 -33 39 -24 7 7 -12 33 -25 33 -4 0 -10 -4 -14
-9z"/>
<path d="M2269 1286 c0 -1 -2 -10 -3 -21 -2 -16 3 -20 23 -19 30 2 54 -14 44
-29 -3 -6 -1 -7 6 -3 9 6 9 11 0 22 -14 17 2 19 21 2 8 -7 5 -1 -8 13 -12 14
-20 27 -18 30 4 3 -61 8 -65 5z m54 -15 c13 -2 7 -18 -8 -18 -8 0 -11 5 -8 10
4 6 0 8 -10 4 -9 -3 -19 -2 -21 2 -5 7 14 8 47 2z"/>
<path d="M2372 1278 c-19 -19 5 -40 30 -27 15 8 17 13 7 25 -14 17 -21 18 -37
2z m27 -19 c-15 -9 -32 -2 -24 11 3 5 13 6 21 3 12 -4 13 -8 3 -14z"/>
<path d="M2610 1275 c-7 -8 -16 -12 -21 -9 -5 3 -9 3 -9 0 0 -2 -3 -11 -6 -20
-3 -9 -1 -16 6 -16 6 0 8 5 4 12 -5 8 0 9 14 6 13 -4 20 -2 16 3 -3 6 0 16 6
24 7 8 10 15 7 15 -2 0 -10 -7 -17 -15z"/>
<path d="M2667 1284 c-9 -10 4 -34 19 -34 16 0 16 2 8 24 -6 17 -16 20 -27 10z"/>
<path d="M2770 1275 c-7 -8 -16 -12 -21 -9 -5 3 -9 3 -9 0 0 -2 -3 -11 -6 -20
-3 -9 -1 -16 6 -16 6 0 8 5 4 12 -5 7 0 9 14 6 16 -5 19 -2 14 11 -5 13 -3 14
10 4 8 -7 18 -10 21 -6 7 6 11 -12 8 -30 -1 -4 7 -3 18 2 10 6 22 7 26 3 5 -4
5 -2 1 5 -4 7 -13 10 -21 6 -11 -4 -14 0 -9 13 4 11 3 16 -1 11 -5 -4 -16 0
-25 8 -15 14 -18 14 -30 0z"/>
<path d="M2930 1275 c-7 -8 -16 -12 -21 -9 -5 3 -9 3 -9 0 0 -2 -3 -11 -6 -20
-3 -9 -1 -16 6 -16 6 0 8 5 4 12 -5 8 0 9 14 6 13 -4 20 -2 16 3 -3 6 0 16 6
24 7 8 10 15 7 15 -2 0 -10 -7 -17 -15z"/>
<path d="M2987 1284 c-9 -10 4 -34 19 -34 16 0 16 2 8 24 -6 17 -16 20 -27 10z"/>
<path d="M3090 1275 c-7 -8 -16 -12 -21 -9 -5 3 -9 3 -9 0 0 -2 -3 -11 -6 -20
-3 -9 -1 -16 6 -16 6 0 8 5 4 12 -5 7 0 9 14 6 16 -5 19 -2 14 11 -5 13 -3 14
10 4 8 -7 18 -10 21 -6 7 6 11 -12 8 -30 -1 -4 7 -3 18 2 10 6 22 7 26 3 5 -4
5 -2 1 5 -4 7 -13 10 -21 6 -11 -4 -14 0 -9 13 4 11 3 16 -1 11 -5 -4 -16 0
-25 8 -15 14 -18 14 -30 0z"/>
<path d="M3250 1275 c-7 -8 -16 -12 -21 -9 -5 3 -9 3 -9 0 0 -2 -3 -11 -6 -20
-3 -9 -1 -16 6 -16 6 0 8 5 4 12 -5 8 0 9 14 6 13 -4 20 -2 16 3 -3 6 0 16 6
24 7 8 10 15 7 15 -2 0 -10 -7 -17 -15z"/>
<path d="M3307 1284 c-9 -10 4 -34 19 -34 16 0 16 2 8 24 -6 17 -16 20 -27 10z"/>
<path d="M3410 1275 c-7 -8 -16 -12 -21 -9 -5 3 -9 3 -9 0 0 -2 -3 -11 -6 -20
-3 -9 -1 -16 6 -16 6 0 8 5 4 12 -5 7 0 9 14 6 16 -5 19 -2 14 11 -5 13 -3 14
10 4 8 -7 18 -10 21 -6 7 6 11 -12 8 -30 -1 -4 7 -3 18 2 10 6 22 7 26 3 5 -4
5 -2 1 5 -4 7 -13 10 -21 6 -11 -4 -14 0 -9 13 4 11 3 16 -1 11 -5 -4 -16 0
-25 8 -15 14 -18 14 -30 0z"/>
<path d="M3570 1275 c-7 -8 -16 -12 -21 -9 -5 3 -9 3 -9 0 0 -2 -3 -11 -6 -20
-3 -9 -1 -16 6 -16 6 0 8 5 4 12 -5 8 0 9 14 6 13 -4 20 -2 16 3 -3 6 0 16 6
24 7 8 10 15 7 15 -2 0 -10 -7 -17 -15z"/>
<path d="M3627 1284 c-9 -10 4 -34 19 -34 16 0 16 2 8 24 -6 17 -16 20 -27 10z"/>
<path d="M3730 1275 c-7 -8 -16 -12 -21 -9 -5 3 -9 3 -9 0 0 -2 -3 -11 -6 -20
-3 -9 -1 -16 6 -16 6 0 8 5 4 12 -5 7 0 9 14 6 16 -5 19 -2 14 11 -5 13 -3 14
10 4 8 -7 18 -10 21 -6 7 6 11 -12 8 -30 -1 -4 7 -3 18 2 10 6 22 7 26 3 5 -4
5 -2 1 5 -4 7 -13 10 -21 6 -11 -4 -14 0 -9 13 4 11 3 16 -1 11 -5 -4 -16 0
-25 8 -15 14 -18 14 -30 0z"/>
<path d="M4189 1286 c0 -1 -2 -10 -3 -21 -2 -16 3 -20 23 -19 30 2 54 -14 44
-29 -3 -6 -1 -7 6 -3 9 6 9 11 0 22 -14 17 2 19 21 2 8 -7 5 -1 -8 13 -12 14
-20 27 -18 30 4 3 -61 8 -65 5z m54 -15 c13 -2 7 -18 -8 -18 -8 0 -11 5 -8 10
4 6 0 8 -10 4 -9 -3 -19 -2 -21 2 -5 7 14 8 47 2z"/>
<path d="M4292 1278 c-19 -19 5 -40 30 -27 15 8 17 13 7 25 -14 17 -21 18 -37
2z m27 -19 c-15 -9 -32 -2 -24 11 3 5 13 6 21 3 12 -4 13 -8 3 -14z"/>
<path d="M4535 1281 c-7 -12 12 -24 25 -16 11 7 4 25 -10 25 -5 0 -11 -4 -15
-9z"/>
<path d="M466 1258 c3 -4 9 -8 15 -8 5 0 9 4 9 8 0 5 -7 9 -15 9 -8 0 -12 -4
-9 -9z"/>
<path d="M981 1248 c-7 -11 -8 -17 -2 -13 6 3 11 1 11 -4 0 -6 4 -11 9 -11 6
0 8 10 6 21 -6 30 -9 31 -24 7z"/>
<path d="M1461 1248 c-7 -11 -8 -17 -2 -13 6 3 11 1 11 -4 0 -6 4 -11 9 -11 6
0 8 10 6 21 -6 30 -9 31 -24 7z"/>
<path d="M1941 1248 c-7 -11 -8 -17 -2 -13 6 3 11 1 11 -4 0 -6 4 -11 9 -11 6
0 8 10 6 21 -6 30 -9 31 -24 7z"/>
<path d="M2421 1248 c-7 -11 -8 -17 -2 -13 6 3 11 1 11 -4 0 -6 4 -11 9 -11 6
0 8 10 6 21 -6 30 -9 31 -24 7z"/>
<path d="M2866 1262 c-2 -4 0 -14 6 -22 8 -12 9 -12 5 2 -3 9 -1 19 6 22 9 3
9 5 0 5 -6 1 -14 -3 -17 -7z"/>
<path d="M3186 1262 c-2 -4 0 -14 6 -22 8 -12 9 -12 5 2 -3 9 -1 19 6 22 9 3
9 5 0 5 -6 1 -14 -3 -17 -7z"/>
<path d="M3506 1262 c-2 -4 0 -14 6 -22 8 -12 9 -12 5 2 -3 9 -1 19 6 22 9 3
9 5 0 5 -6 1 -14 -3 -17 -7z"/>
<path d="M3861 1248 c-7 -11 -8 -17 -2 -13 6 3 11 1 11 -4 0 -6 4 -11 9 -11 6
0 8 10 6 21 -6 30 -9 31 -24 7z"/>
<path d="M4341 1248 c-7 -11 -8 -17 -2 -13 6 3 11 1 11 -4 0 -6 4 -11 9 -11 6
0 8 10 6 21 -6 30 -9 31 -24 7z"/>
<path d="M4795 1260 c-3 -5 -1 -10 4 -10 6 0 11 5 11 10 0 6 -2 10 -4 10 -3 0
-8 -4 -11 -10z"/>
<path d="M753 1243 c4 -6 2 -13 -5 -15 -8 -3 -6 -6 4 -10 17 -7 19 15 3 29 -4
4 -5 3 -2 -4z"/>
<path d="M873 1235 c0 -8 4 -12 9 -9 5 3 6 10 3 15 -9 13 -12 11 -12 -6z"/>
<path d="M930 1236 c0 -8 4 -18 10 -21 6 -4 7 1 3 11 -5 13 -3 15 7 9 9 -5 11
-4 6 3 -10 17 -26 15 -26 -2z"/>
<path d="M1233 1243 c4 -6 2 -13 -5 -15 -8 -3 -6 -6 4 -10 17 -7 19 15 3 29
-4 4 -5 3 -2 -4z"/>
<path d="M1713 1243 c4 -6 2 -13 -5 -15 -8 -3 -6 -6 4 -10 17 -7 19 15 3 29
-4 4 -5 3 -2 -4z"/>
<path d="M1833 1235 c0 -8 4 -12 9 -9 5 3 6 10 3 15 -9 13 -12 11 -12 -6z"/>
<path d="M1890 1236 c0 -8 4 -18 10 -21 6 -4 7 1 3 11 -5 13 -3 15 7 9 9 -5
11 -4 6 3 -10 17 -26 15 -26 -2z"/>
<path d="M2193 1243 c4 -6 2 -13 -5 -15 -8 -3 -6 -6 4 -10 17 -7 19 15 3 29
-4 4 -5 3 -2 -4z"/>
<path d="M4113 1243 c4 -6 2 -13 -5 -15 -8 -3 -6 -6 4 -10 17 -7 19 15 3 29
-4 4 -5 3 -2 -4z"/>
<path d="M4593 1235 c0 -8 4 -12 9 -9 5 3 6 10 3 15 -9 13 -12 11 -12 -6z"/>
<path d="M4705 1240 c-3 -6 1 -7 9 -4 18 7 21 14 7 14 -6 0 -13 -4 -16 -10z"/>
<path d="M590 1230 c0 -5 5 -10 11 -10 5 0 7 5 4 10 -3 6 -8 10 -11 10 -2 0
-4 -4 -4 -10z"/>
<path d="M1110 1231 c0 -6 4 -12 8 -15 5 -3 9 1 9 9 0 8 -4 15 -9 15 -4 0 -8
-4 -8 -9z"/>
<path d="M1315 1229 c-4 -6 -5 -12 -2 -15 2 -3 7 2 10 11 7 17 1 20 -8 4z"/>
<path d="M1590 1231 c0 -6 4 -12 8 -15 5 -3 9 1 9 9 0 8 -4 15 -9 15 -4 0 -8
-4 -8 -9z"/>
<path d="M2070 1231 c0 -6 4 -12 8 -15 5 -3 9 1 9 9 0 8 -4 15 -9 15 -4 0 -8
-4 -8 -9z"/>
<path d="M2275 1229 c-4 -6 -5 -12 -2 -15 2 -3 7 2 10 11 7 17 1 20 -8 4z"/>
<path d="M2673 1225 c0 -8 4 -12 9 -9 5 3 6 10 3 15 -9 13 -12 11 -12 -6z"/>
<path d="M2993 1225 c0 -8 4 -12 9 -9 5 3 6 10 3 15 -9 13 -12 11 -12 -6z"/>
<path d="M3313 1225 c0 -8 4 -12 9 -9 5 3 6 10 3 15 -9 13 -12 11 -12 -6z"/>
<path d="M3633 1225 c0 -8 4 -12 9 -9 5 3 6 10 3 15 -9 13 -12 11 -12 -6z"/>
<path d="M3990 1231 c0 -6 4 -12 8 -15 5 -3 9 1 9 9 0 8 -4 15 -9 15 -4 0 -8
-4 -8 -9z"/>
<path d="M4195 1229 c-4 -6 -5 -12 -2 -15 2 -3 7 2 10 11 7 17 1 20 -8 4z"/>
<path d="M4470 1230 c0 -5 5 -10 11 -10 5 0 7 5 4 10 -3 6 -8 10 -11 10 -2 0
-4 -4 -4 -10z"/>
<path d="M1190 1219 c0 -5 5 -7 10 -4 6 3 10 8 10 11 0 2 -4 4 -10 4 -5 0 -10
-5 -10 -11z"/>
<path d="M1670 1219 c0 -5 5 -7 10 -4 6 3 10 8 10 11 0 2 -4 4 -10 4 -5 0 -10
-5 -10 -11z"/>
<path d="M2150 1219 c0 -5 5 -7 10 -4 6 3 10 8 10 11 0 2 -4 4 -10 4 -5 0 -10
-5 -10 -11z"/>
<path d="M4070 1219 c0 -5 5 -7 10 -4 6 3 10 8 10 11 0 2 -4 4 -10 4 -5 0 -10
-5 -10 -11z"/>
</g>
</svg>
